<?xml version="1.0" encoding="UTF-8" standalone="no"?>
<!-- Created with Inkscape (http://www.inkscape.org/) -->

<svg
   xmlns:dc="http://purl.org/dc/elements/1.1/"
   xmlns:cc="http://creativecommons.org/ns#"
   xmlns:rdf="http://www.w3.org/1999/02/22-rdf-syntax-ns#"
   xmlns:svg="http://www.w3.org/2000/svg"
   xmlns="http://www.w3.org/2000/svg"
   xmlns:sodipodi="http://sodipodi.sourceforge.net/DTD/sodipodi-0.dtd"
   xmlns:inkscape="http://www.inkscape.org/namespaces/inkscape"
   width="500"
   height="500"
   viewBox="0 0 132.29166 132.29167"
   version="1.1"
   id="svg8"
   sodipodi:docname="black logo.svg"
   inkscape:version="0.92.2 (5c3e80d, 2017-08-06)">
  <defs
     id="defs2">
    <clipPath
       clipPathUnits="userSpaceOnUse"
       id="clipPath16">
      <path
         d="M 0,192 H 192 V 0 H 0 Z"
         id="path18"
         inkscape:connector-curvature="0" />
    </clipPath>
    <clipPath
       clipPathUnits="userSpaceOnUse"
       id="clipPath26">
      <path
         d="M -4.88281e-4,192 H 192 V -4.88281e-4 H -4.88281e-4 Z"
         id="path28"
         inkscape:connector-curvature="0" />
    </clipPath>
    <clipPath
       clipPathUnits="userSpaceOnUse"
       id="clipPath34">
      <path
         d="M -4.88281e-4,192 H 192 V -4.88281e-4 H -4.88281e-4 Z"
         id="path36"
         inkscape:connector-curvature="0" />
    </clipPath>
    <clipPath
       clipPathUnits="userSpaceOnUse"
       id="clipPath38">
      <path
         d="M 0,192 H 192 V 0 H 0 Z"
         id="path40"
         inkscape:connector-curvature="0" />
    </clipPath>
    <clipPath
       clipPathUnits="userSpaceOnUse"
       id="clipPath42">
      <path
         d="M 0,192 H 192 V 0 H 0 Z"
         id="path44"
         inkscape:connector-curvature="0" />
    </clipPath>
    <clipPath
       clipPathUnits="userSpaceOnUse"
       id="clipPath116">
      <path
         d="M 0,192 H 192 V -4.88281e-4 H 0 Z"
         id="path118"
         inkscape:connector-curvature="0" />
    </clipPath>
    <clipPath
       clipPathUnits="userSpaceOnUse"
       id="clipPath120">
      <path
         d="M 0,192 H 192 V 4.88281e-4 H 0 Z"
         id="path122"
         inkscape:connector-curvature="0" />
    </clipPath>
    <clipPath
       clipPathUnits="userSpaceOnUse"
       id="clipPath124">
      <path
         d="M 192,192 H 0 V 0 h 192 z"
         id="path126"
         inkscape:connector-curvature="0" />
    </clipPath>
  </defs>
  <sodipodi:namedview
     id="base"
     pagecolor="#ffffff"
     bordercolor="#666666"
     borderopacity="1.0"
     inkscape:pageopacity="0.0"
     inkscape:pageshadow="2"
     inkscape:zoom="0.7"
     inkscape:cx="328.29597"
     inkscape:cy="274.96152"
     inkscape:document-units="px"
     inkscape:current-layer="layer2"
     showgrid="false"
     units="px"
     inkscape:showpageshadow="false"
     inkscape:window-width="1366"
     inkscape:window-height="705"
     inkscape:window-x="-8"
     inkscape:window-y="-8"
     inkscape:window-maximized="1"
     inkscape:object-paths="true" />
  <metadata
     id="metadata5">
    <rdf:RDF>
      <cc:Work
         rdf:about="">
        <dc:format>image/svg+xml</dc:format>
        <dc:type
           rdf:resource="http://purl.org/dc/dcmitype/StillImage" />
        <dc:title></dc:title>
      </cc:Work>
    </rdf:RDF>
  </metadata>
  <g
     inkscape:groupmode="layer"
     id="layer2"
     inkscape:label="Layer 2">
    <g
       style="stroke-width:0.99869794;fill:#000000"
       transform="matrix(1.0013037,0,0,1.0013037,-0.08623182,-0.08623538)"
       id="g4177">
      <rect
         style="opacity:0;fill:#000000;fill-opacity:1;stroke:none;stroke-width:7.92716503;stroke-linecap:round;stroke-linejoin:round;stroke-miterlimit:4;stroke-dasharray:none;stroke-dashoffset:0;stroke-opacity:1;paint-order:normal"
         id="rect4173"
         width="132.11942"
         height="132.11942"
         x="0.086122356"
         y="0.08612591" />
      <path
         style="opacity:1;fill:#000000;fill-opacity:1;stroke:none;stroke-width:5.28477621;stroke-linecap:round;stroke-linejoin:round;stroke-miterlimit:4;stroke-dasharray:none;stroke-dashoffset:0;stroke-opacity:1;paint-order:normal"
         d="m 39.700637,5.12485 c -1.917315,0.035441 -3.539544,0.6030009 -4.695914,1.7593669 -4.111533,4.1115371 -0.778481,14.1107291 7.444599,22.3337971 8.223069,8.223084 22.333797,7.444601 22.333797,7.444601 0,0 0.778482,-14.11073 -7.444598,-22.333798 C 51.42819,8.4184783 44.600445,5.0342734 39.700637,5.12485 Z m 48.195056,6.015585 c -3.965756,-0.0733 -9.491956,2.665606 -14.275602,7.449253 -6.655508,6.655507 -6.025471,18.076416 -6.025471,18.076416 0,0 11.42092,0.630025 18.076415,-6.025472 6.65551,-6.655507 9.353222,-14.748658 6.025474,-18.076418 -0.935929,-0.935929 -2.249001,-1.395091 -3.800816,-1.423779 z M 66.145829,39.333364 A 43.917854,43.917854 0 0 0 22.22793,83.251265 43.917854,43.917854 0 0 0 66.145829,127.16859 43.917854,43.917854 0 0 0 110.06373,83.251265 43.917854,43.917854 0 0 0 66.145829,39.333364 Z m -13.385737,6.98222 a 4.2407036,4.2407036 0 0 1 2.937126,1.241736 4.2407036,4.2407036 0 0 1 0.265216,0.293131 c 3.3313,-0.958445 6.77144,-1.440065 10.212477,-1.440065 9.414979,2e-6 18.830131,3.587897 26.004913,10.76268 13.633586,13.633577 14.312196,35.354855 2.039124,49.795644 a 2.9781374,2.9781374 0 0 1 -4.331824,4.08464 L 69.197534,90.363764 a 7.7996117,7.7996117 0 0 1 -8.536862,-1.670963 7.7996117,7.7996117 0 0 1 0,-11.030221 7.7996117,7.7996117 0 0 1 11.030803,0 7.7996117,7.7996117 0 0 1 1.695391,8.46765 l 7.395161,7.395743 c 3.181241,-4.471821 4.062628,-10.061654 2.643998,-15.154411 a 4.2407036,4.2407036 0 0 1 -3.09009,-1.235919 4.2407036,4.2407036 0 0 1 -0.450747,-5.463638 c -0.331984,-0.394299 -0.6796,-0.780215 -1.050969,-1.151587 -7.003194,-7.003192 -18.313677,-7.003181 -25.316872,0 -7.003181,7.00319 -7.003181,18.311355 0,25.314546 4.166897,4.166886 9.85827,5.844136 15.264919,5.053606 0.23644,-0.0346 0.472198,-0.0722 0.707817,-0.11632 a 1.4890685,1.4890685 0 1 1 0.547294,2.92549 c -0.274178,0.0513 -0.548615,0.0987 -0.824721,0.139 -6.302487,0.92153 -12.956747,-1.05179 -17.800734,-5.895771 -8.141169,-8.141166 -8.141169,-21.385389 0,-29.526558 4.070589,-4.07058 9.416541,-6.106317 14.762989,-6.106316 5.346437,10e-7 10.694727,2.03573 14.765314,6.106316 0.512423,0.512424 0.992731,1.045042 1.440649,1.595354 a 4.2407036,4.2407036 0 0 1 3.952615,1.128322 4.2407036,4.2407036 0 0 1 0,5.997556 4.2407036,4.2407036 0 0 1 -0.137842,0.124465 c 1.815646,6.179286 0.719676,13.036866 -3.282604,18.396882 l 3.773484,3.773482 c 8.171784,-10.279264 7.504006,-25.244081 -2.007136,-34.755227 -10.231547,-10.23157 -26.775096,-10.231547 -37.006634,0 -9.650485,9.650484 -10.196831,24.91532 -1.642466,35.203649 a 4.2407036,4.2407036 0 0 1 4.679047,0.890446 4.2407036,4.2407036 0 0 1 1.049804,4.25272 c 5.35914,3.54705 11.727956,4.91035 17.871111,4.09686 a 1.4890685,1.4890685 0 1 1 0.391422,2.94992 c -6.909309,0.91494 -14.088886,-0.65471 -20.092276,-4.69243 a 4.2407036,4.2407036 0 0 1 -5.217035,-0.60951 4.2407036,4.2407036 0 0 1 -0.828792,-4.81515 c -9.653739,-11.442656 -9.093828,-28.605505 1.683176,-39.382513 5.684767,-5.684761 13.146078,-8.526392 20.608163,-8.526392 7.462085,10e-7 14.925721,2.841618 20.610488,8.526392 10.65103,10.651043 11.323647,27.540023 2.018767,38.979453 l 3.304702,3.3047 C 103.24599,91.566352 102.57025,71.773188 90.076144,59.279073 81.093098,50.296019 68.33553,47.42336 56.936047,50.656134 a 4.2407036,4.2407036 0 0 1 -1.238829,2.898159 4.2407036,4.2407036 0 0 1 -5.930668,0.06281 c -2.684251,1.493483 -5.209164,3.380583 -7.490547,5.661967 -13.211578,13.211579 -13.211578,34.586238 0,47.79782 7.638281,7.63828 17.469026,10.94012 27.378677,9.7815 a 1.4896312,1.4896312 0 0 1 0.344894,2.95923 c -10.789925,1.26153 -21.584823,-2.39289 -29.827251,-10.6353 -14.349556,-14.349563 -14.349556,-37.6597 0,-52.009257 2.523141,-2.523142 5.323589,-4.600722 8.303054,-6.236596 a 4.2407036,4.2407036 0 0 1 1.224288,-3.37915 4.2407036,4.2407036 0 0 1 3.060427,-1.241736 z"
         id="path4175"
         inkscape:connector-curvature="0" />
    </g>
  </g>
</svg>
