<?xml version="1.0" encoding="UTF-8" standalone="no"?>
<!-- Created with Inkscape (http://www.inkscape.org/) -->

<svg
   xmlns:dc="http://purl.org/dc/elements/1.1/"
   xmlns:cc="http://creativecommons.org/ns#"
   xmlns:rdf="http://www.w3.org/1999/02/22-rdf-syntax-ns#"
   xmlns:svg="http://www.w3.org/2000/svg"
   xmlns="http://www.w3.org/2000/svg"
   xmlns:sodipodi="http://sodipodi.sourceforge.net/DTD/sodipodi-0.dtd"
   xmlns:inkscape="http://www.inkscape.org/namespaces/inkscape"
   width="500"
   height="500"
   viewBox="0 0 132.29166 132.29167"
   version="1.1"
   id="svg8"
   sodipodi:docname="white icon.svg"
   inkscape:version="0.92.2 (5c3e80d, 2017-08-06)">
  <defs
     id="defs2">
    <clipPath
       clipPathUnits="userSpaceOnUse"
       id="clipPath16">
      <path
         d="M 0,192 H 192 V 0 H 0 Z"
         id="path18"
         inkscape:connector-curvature="0" />
    </clipPath>
    <clipPath
       clipPathUnits="userSpaceOnUse"
       id="clipPath26">
      <path
         d="M -4.88281e-4,192 H 192 V -4.88281e-4 H -4.88281e-4 Z"
         id="path28"
         inkscape:connector-curvature="0" />
    </clipPath>
    <clipPath
       clipPathUnits="userSpaceOnUse"
       id="clipPath34">
      <path
         d="M -4.88281e-4,192 H 192 V -4.88281e-4 H -4.88281e-4 Z"
         id="path36"
         inkscape:connector-curvature="0" />
    </clipPath>
    <clipPath
       clipPathUnits="userSpaceOnUse"
       id="clipPath38">
      <path
         d="M 0,192 H 192 V 0 H 0 Z"
         id="path40"
         inkscape:connector-curvature="0" />
    </clipPath>
    <clipPath
       clipPathUnits="userSpaceOnUse"
       id="clipPath42">
      <path
         d="M 0,192 H 192 V 0 H 0 Z"
         id="path44"
         inkscape:connector-curvature="0" />
    </clipPath>
    <clipPath
       clipPathUnits="userSpaceOnUse"
       id="clipPath116">
      <path
         d="M 0,192 H 192 V -4.88281e-4 H 0 Z"
         id="path118"
         inkscape:connector-curvature="0" />
    </clipPath>
    <clipPath
       clipPathUnits="userSpaceOnUse"
       id="clipPath120">
      <path
         d="M 0,192 H 192 V 4.88281e-4 H 0 Z"
         id="path122"
         inkscape:connector-curvature="0" />
    </clipPath>
    <clipPath
       clipPathUnits="userSpaceOnUse"
       id="clipPath124">
      <path
         d="M 192,192 H 0 V 0 h 192 z"
         id="path126"
         inkscape:connector-curvature="0" />
    </clipPath>
  </defs>
  <sodipodi:namedview
     id="base"
     pagecolor="#ffffff"
     bordercolor="#666666"
     borderopacity="1.0"
     inkscape:pageopacity="0.0"
     inkscape:pageshadow="2"
     inkscape:zoom="0.7"
     inkscape:cx="416.8674"
     inkscape:cy="223.53295"
     inkscape:document-units="px"
     inkscape:current-layer="layer2"
     showgrid="false"
     units="px"
     inkscape:showpageshadow="false"
     inkscape:window-width="1366"
     inkscape:window-height="705"
     inkscape:window-x="-8"
     inkscape:window-y="-8"
     inkscape:window-maximized="1"
     inkscape:object-paths="true" />
  <metadata
     id="metadata5">
    <rdf:RDF>
      <cc:Work
         rdf:about="">
        <dc:format>image/svg+xml</dc:format>
        <dc:type
           rdf:resource="http://purl.org/dc/dcmitype/StillImage" />
        <dc:title></dc:title>
      </cc:Work>
    </rdf:RDF>
  </metadata>
  <g
     inkscape:groupmode="layer"
     id="layer2"
     inkscape:label="Layer 2">
    <rect
       style="opacity:0;fill:#ffffff;fill-opacity:1;stroke:none;stroke-width:7.93749952;stroke-linecap:round;stroke-linejoin:round;stroke-miterlimit:4;stroke-dasharray:none;stroke-dashoffset:0;stroke-opacity:1;paint-order:normal"
       id="rect4295"
       width="132.29166"
       height="132.29167"
       x="4.2529296e-006"
       y="-3.376465e-006" />
    <path
       style="opacity:1;fill:#ffffff;fill-opacity:1;stroke:none;stroke-width:19.99999809;stroke-linecap:round;stroke-linejoin:round;stroke-miterlimit:4;stroke-dasharray:none;stroke-dashoffset:0;stroke-opacity:1;paint-order:normal"
       d="M 83.222656 53.523438 C 66.769949 53.523438 53.525391 66.767996 53.525391 83.220703 L 53.525391 416.7793 C 53.525391 433.232 66.769949 446.47656 83.222656 446.47656 L 416.77734 446.47656 C 433.23005 446.47656 446.47461 433.232 446.47461 416.7793 L 446.47461 83.220703 C 446.47461 66.767996 433.23005 53.523438 416.77734 53.523438 L 83.222656 53.523438 z M 179.03516 86.25 C 192.18352 86.006937 210.50517 95.089152 226.36523 110.94922 C 248.43141 133.01537 246.34375 170.87891 246.34375 170.87891 C 246.34375 170.87891 208.47826 172.96849 186.41211 150.90234 C 164.34593 128.8362 155.40055 102.00378 166.43359 90.970703 C 169.53665 87.867642 173.89014 86.345111 179.03516 86.25 z M 308.36523 102.39258 C 312.52945 102.46956 316.05099 103.70333 318.5625 106.21484 C 327.49233 115.1447 320.25425 136.86102 302.39453 154.7207 C 284.53491 172.58038 253.88672 170.89062 253.88672 170.89062 C 253.88672 170.89062 252.19696 140.2425 270.05664 122.38281 C 282.89331 109.54616 297.72336 102.19586 308.36523 102.39258 z M 251.7207 178.05859 A 117.85111 117.85111 0 0 1 333.33398 212.56445 A 117.85111 117.85111 0 0 1 333.33398 379.23047 A 117.85111 117.85111 0 0 1 166.66602 379.23047 A 117.85111 117.85111 0 0 1 166.66602 212.56445 A 117.85111 117.85111 0 0 1 251.7207 178.05859 z M 249.875 197.52734 C 239.05138 197.52734 228.22944 199.30918 217.88281 202.85938 A 11.379692 11.379692 0 0 0 217.26758 202.17969 A 11.379692 11.379692 0 0 0 201.17383 202.17969 A 11.379692 11.379692 0 0 0 198.0293 212.2832 C 191.75985 216.18112 185.83489 220.8487 180.39258 226.29102 C 142.04738 264.63621 142.04738 326.91067 180.39258 365.25586 C 202.42517 387.28842 231.26025 397.04652 260.08984 393.67578 A 3.5755318 3.5755318 0 1 0 259.25781 386.57422 C 232.54122 389.69788 206.02964 380.78938 185.44727 360.20703 C 149.83369 324.59346 149.83369 266.95928 185.44727 231.3457 C 190.402 226.39097 195.78412 222.12686 201.47266 218.55078 A 11.379692 11.379692 0 0 0 217.26758 218.27148 A 11.379692 11.379692 0 0 0 220.56641 209.4707 C 252.37164 198.68001 288.93046 205.96752 314.30859 231.3457 C 348.20012 265.23721 349.83665 319.06867 319.22266 354.88867 L 309.75781 345.42383 C 335.12899 314.8829 333.50682 269.39357 304.88281 240.76953 C 289.70857 225.59529 269.79036 218.00586 249.875 218.00586 C 229.95964 218.00586 210.04532 225.59531 194.87109 240.76953 C 167.3301 268.31052 164.78689 311.46638 187.23242 341.89648 A 11.379692 11.379692 0 0 0 188.90039 355.84375 A 11.379692 11.379692 0 0 0 202.68555 357.60938 C 219.43017 370.41654 240.20648 375.52668 260.14258 372.88672 A 3.5749395 3.5749395 0 1 0 259.20312 365.79883 C 241.24485 368.17686 222.5693 363.66574 207.41797 352.23828 A 11.379692 11.379692 0 0 0 204.99414 339.75 A 11.379692 11.379692 0 0 0 192.68359 337.24805 C 172.57538 309.61201 174.98466 270.76534 199.92578 245.82422 C 227.54261 218.20739 272.21126 218.20736 299.82812 245.82422 C 325.71758 271.71367 327.33828 312.58946 304.6875 340.35352 L 293.96875 329.63477 C 304.52339 315.91083 307.806 298.36562 303.79883 282.26562 A 11.379692 11.379692 0 0 0 304.86328 281.33984 A 11.379692 11.379692 0 0 0 304.86328 265.24609 A 11.379692 11.379692 0 0 0 294.21094 262.23047 C 292.68936 260.22257 291.02793 258.28769 289.19727 256.45703 C 278.3546 245.61437 264.11315 240.18946 249.875 240.18945 C 235.63685 240.18945 221.40126 245.61437 210.55859 256.45703 C 188.87329 278.14237 188.87326 313.41037 210.55859 335.0957 C 223.46001 347.99709 241.17495 353.24542 257.95898 350.79297 C 258.69493 350.68544 259.42822 350.56061 260.1582 350.42383 A 3.5743795 3.5743795 0 1 0 258.8457 343.40039 C 258.20767 343.51979 257.56918 343.62333 256.92969 343.7168 C 242.29445 345.8567 226.89073 341.31649 215.61328 330.03906 C 196.65957 311.08535 196.6596 280.46152 215.61328 261.50781 C 234.567 242.5541 265.18691 242.5541 284.14062 261.50781 C 285.57139 262.93858 286.88095 264.44235 288.0957 265.99609 A 11.379692 11.379692 0 0 0 288.76953 281.33984 A 11.379692 11.379692 0 0 0 297.06055 284.65625 C 300.25021 298.21319 297.52477 312.86423 288.87695 324.54297 L 268.86719 304.53516 A 20.929822 20.929822 0 0 0 264.67578 280.97461 A 20.929822 20.929822 0 0 0 235.07617 280.97461 A 20.929822 20.929822 0 0 0 235.07617 310.57422 A 20.929822 20.929822 0 0 0 258.79688 314.67969 L 314.0957 369.97852 A 7.1487591 7.1487591 0 1 0 324.28711 359.95508 C 357.62747 321.37145 355.98876 262.9165 319.36328 226.29102 C 300.1907 207.1184 275.03086 197.52735 249.875 197.52734 z "
       transform="scale(0.26458333)"
       id="rect4297" />
  </g>
</svg>
