<?xml version="1.0" encoding="UTF-8" standalone="no"?>
<!-- Created with Inkscape (http://www.inkscape.org/) -->

<svg
   xmlns:dc="http://purl.org/dc/elements/1.1/"
   xmlns:cc="http://creativecommons.org/ns#"
   xmlns:rdf="http://www.w3.org/1999/02/22-rdf-syntax-ns#"
   xmlns:svg="http://www.w3.org/2000/svg"
   xmlns="http://www.w3.org/2000/svg"
   xmlns:sodipodi="http://sodipodi.sourceforge.net/DTD/sodipodi-0.dtd"
   xmlns:inkscape="http://www.inkscape.org/namespaces/inkscape"
   width="120"
   height="120"
   viewBox="0 0 120 120"
   id="svg2"
   version="1.1"
   inkscape:version="0.48.5 r10040"
   sodipodi:docname="Pencil.svg">
  <title
     id="title4169">Pencil</title>
  <defs
     id="defs4" />
  <sodipodi:namedview
     id="base"
     pagecolor="#ffffff"
     bordercolor="#666666"
     borderopacity="1.0"
     inkscape:pageopacity="0.0"
     inkscape:pageshadow="2"
     inkscape:zoom="2.8"
     inkscape:cx="123.24778"
     inkscape:cy="62.23626"
     inkscape:document-units="px"
     inkscape:current-layer="layer1"
     showgrid="false"
     fit-margin-top="0"
     fit-margin-left="0"
     fit-margin-right="0"
     fit-margin-bottom="0"
     units="px"
     inkscape:window-width="1920"
     inkscape:window-height="1036"
     inkscape:window-x="0"
     inkscape:window-y="44"
     inkscape:window-maximized="0"
     inkscape:snap-page="false" />
  <metadata
     id="metadata7">
    <rdf:RDF>
      <cc:Work
         rdf:about="">
        <dc:format>image/svg+xml</dc:format>
        <dc:type
           rdf:resource="http://purl.org/dc/dcmitype/StillImage" />
        <dc:title>Pencil</dc:title>
        <cc:license
           rdf:resource="http://creativecommons.org/publicdomain/zero/1.0/" />
      </cc:Work>
      <cc:License
         rdf:about="http://creativecommons.org/publicdomain/zero/1.0/">
        <cc:permits
           rdf:resource="http://creativecommons.org/ns#Reproduction" />
        <cc:permits
           rdf:resource="http://creativecommons.org/ns#Distribution" />
        <cc:permits
           rdf:resource="http://creativecommons.org/ns#DerivativeWorks" />
      </cc:License>
    </rdf:RDF>
  </metadata>
  <g
     inkscape:label="Ebene 1"
     inkscape:groupmode="layer"
     id="layer1"
     transform="translate(-22.95519,-632.45723)">
    <path
       style="color:#000000;fill:#000000;fill-opacity:1;fill-rule:nonzero;stroke:none;stroke-width:0.10629921;marker:none;visibility:visible;display:inline;overflow:visible;enable-background:accumulate"
       d="m 121.28185,634.45353 c 1.08273,0.004 2.2973,0.49482 3.71785,1.74995 3.78816,3.34704 13.2163,11.45637 15.58981,15.67466 2.3735,4.21829 0.65028,5.42195 -1.3485,7.46672 l -78.975467,80.79106 c -0.684348,0.7001 -2.386255,0.70803 -4.175069,1.27066 -5.341479,1.68009 -13.585235,4.3729 -20.703091,6.63727 l -0.04638,-3.92054 -2.134739,0.0247 0.593186,-2.3212 -5.355513,-1.36939 c 2.456922,-6.83554 5.456029,-14.41108 7.573668,-19.08205 0.651273,-1.43659 1.029602,-2.72461 1.635357,-3.34428 l 78.975471,-80.79108 c 1.41083,-1.44329 2.84889,-2.79307 4.65344,-2.78641 z m -93.865516,108.8632 2.700215,0.69281 -0.823601,3.20746 3.057239,-0.0351 0.01704,1.82147 c -2.956418,0.92866 -5.612558,1.7473 -7.451474,2.26253 0.524977,-2.05228 1.442239,-4.88451 2.500585,-7.94924 z"
       id="rect4136"
       inkscape:connector-curvature="0"
       sodipodi:nodetypes="cssssscccccssscccccccccc" />
  </g>
</svg>
