<?xml version="1.0" encoding="UTF-8" standalone="no"?>
<!-- Created with Inkscape (http://www.inkscape.org/) -->

<svg
   xmlns:dc="http://purl.org/dc/elements/1.1/"
   xmlns:cc="http://creativecommons.org/ns#"
   xmlns:rdf="http://www.w3.org/1999/02/22-rdf-syntax-ns#"
   xmlns:svg="http://www.w3.org/2000/svg"
   xmlns="http://www.w3.org/2000/svg"
   xmlns:sodipodi="http://sodipodi.sourceforge.net/DTD/sodipodi-0.dtd"
   xmlns:inkscape="http://www.inkscape.org/namespaces/inkscape"
   width="50"
   height="50"
   id="svg2"
   version="1.1"
   inkscape:version="0.48.5 r10040"
   sodipodi:docname="New document 1">
  <defs
     id="defs4" />
  <sodipodi:namedview
     id="base"
     pagecolor="#ffffff"
     bordercolor="#666666"
     borderopacity="1.0"
     inkscape:pageopacity="0.0"
     inkscape:pageshadow="2"
     inkscape:zoom="7.9195959"
     inkscape:cx="8.9098043"
     inkscape:cy="22.210556"
     inkscape:document-units="px"
     inkscape:current-layer="layer1"
     showgrid="false"
     inkscape:snap-object-midpoints="true"
     inkscape:snap-center="true"
     inkscape:window-width="1920"
     inkscape:window-height="1036"
     inkscape:window-x="0"
     inkscape:window-y="44"
     inkscape:window-maximized="0" />
  <metadata
     id="metadata7">
    <rdf:RDF>
      <cc:Work
         rdf:about="">
        <dc:format>image/svg+xml</dc:format>
        <dc:type
           rdf:resource="http://purl.org/dc/dcmitype/StillImage" />
        <dc:title></dc:title>
      </cc:Work>
    </rdf:RDF>
  </metadata>
  <g
     inkscape:label="Layer 1"
     inkscape:groupmode="layer"
     id="layer1"
     transform="translate(0,-1002.3622)">
    <rect
       style="fill:#ffffff;fill-opacity:1;stroke:none"
       id="rect2987"
       width="10.985409"
       height="13.384521"
       x="19.507296"
       y="1002.3622"
       rx="2.3192518"
       ry="4.4194174"
       inkscape:transform-center-y="-18.30774" />
    <rect
       inkscape:transform-center-y="-12.945539"
       ry="4.4194174"
       rx="2.3192518"
       y="719.13245"
       x="-714.26978"
       height="13.384521"
       width="10.985409"
       id="rect2991"
       style="fill:#ffffff;fill-opacity:1;stroke:none"
       transform="matrix(0.70710678,-0.70710678,0.70710678,0.70710678,0,0)"
       inkscape:transform-center-x="12.945501" />
    <rect
       inkscape:transform-center-x="18.30773"
       transform="matrix(0,-1,1,0,0,0)"
       style="fill:#ffffff;fill-opacity:1;stroke:none"
       id="rect2993"
       width="10.985409"
       height="13.384521"
       x="-1032.8549"
       y="9.4740062e-06"
       rx="2.3192518"
       ry="4.4194174"
       inkscape:transform-center-y="-2.8501215e-05" />
    <rect
       inkscape:transform-center-y="12.945515"
       ry="4.4194174"
       rx="2.3192518"
       y="-733.7771"
       x="-749.62512"
       height="13.384521"
       width="10.985409"
       id="rect2995"
       style="fill:#ffffff;fill-opacity:1;stroke:none"
       transform="matrix(-0.70710678,-0.70710678,0.70710678,-0.70710678,0,0)"
       inkscape:transform-center-x="12.945542" />
    <rect
       inkscape:transform-center-x="1.929661e-05"
       transform="scale(-1,-1)"
       style="fill:#ffffff;fill-opacity:1;stroke:none"
       id="rect2997"
       width="10.985409"
       height="13.384521"
       x="-30.492685"
       y="-1052.3622"
       rx="2.3192518"
       ry="4.4194174"
       inkscape:transform-center-y="18.30774" />
    <rect
       inkscape:transform-center-y="12.945555"
       ry="4.4194174"
       rx="2.3192518"
       y="-769.13245"
       x="703.28442"
       height="13.384521"
       width="10.985409"
       id="rect2999"
       style="fill:#ffffff;fill-opacity:1;stroke:none"
       transform="matrix(-0.70710678,0.70710678,-0.70710678,-0.70710678,0,0)"
       inkscape:transform-center-x="-12.945512" />
    <rect
       inkscape:transform-center-x="-18.307747"
       transform="matrix(0,1,-1,0,0,0)"
       style="fill:#ffffff;fill-opacity:1;stroke:none"
       id="rect3001"
       width="10.985409"
       height="13.384521"
       x="1021.8695"
       y="-50.000008"
       rx="2.3192518"
       ry="4.4194174"
       inkscape:transform-center-y="2.8472577e-05" />
    <rect
       inkscape:transform-center-y="-12.945499"
       ry="4.4194174"
       rx="2.3192518"
       y="683.7771"
       x="738.63977"
       height="13.384521"
       width="10.985409"
       id="rect3003"
       style="fill:#ffffff;fill-opacity:1;stroke:none"
       transform="matrix(0.70710678,0.70710678,-0.70710678,0.70710678,0,0)"
       inkscape:transform-center-x="-12.945552" />
    <path
       style="fill:#ffffff;fill-opacity:1;stroke:none"
       d="M 25 8.21875 C 15.725048 8.21875 8.21875 15.725048 8.21875 25 C 8.21875 34.274952 15.725048 41.78125 25 41.78125 C 34.274952 41.78125 41.78125 34.274952 41.78125 25 C 41.78125 15.725048 34.274952 8.21875 25 8.21875 z M 25 16.28125 C 29.811818 16.28125 33.71875 20.188182 33.71875 25 C 33.71875 29.811818 29.811818 33.71875 25 33.71875 C 20.188182 33.71875 16.28125 29.811818 16.28125 25 C 16.28125 20.188182 20.188182 16.28125 25 16.28125 z "
       transform="translate(0,1002.3622)"
       id="path3005" />
  </g>
</svg>
