<?xml version="1.0" encoding="UTF-8" standalone="no"?>
<!-- Created with Inkscape (http://www.inkscape.org/) -->

<svg
   xmlns:dc="http://purl.org/dc/elements/1.1/"
   xmlns:cc="http://creativecommons.org/ns#"
   xmlns:rdf="http://www.w3.org/1999/02/22-rdf-syntax-ns#"
   xmlns:svg="http://www.w3.org/2000/svg"
   xmlns="http://www.w3.org/2000/svg"
   xmlns:sodipodi="http://sodipodi.sourceforge.net/DTD/sodipodi-0.dtd"
   xmlns:inkscape="http://www.inkscape.org/namespaces/inkscape"
   width="21"
   height="25"
   id="svg2"
   version="1.1"
   inkscape:version="0.48.5 r10040"
   sodipodi:docname="group.svg">
  <defs
     id="defs4" />
  <sodipodi:namedview
     id="base"
     pagecolor="#ffffff"
     bordercolor="#666666"
     borderopacity="1.0"
     inkscape:pageopacity="0.0"
     inkscape:pageshadow="2"
     inkscape:zoom="31.678384"
     inkscape:cx="9.1315061"
     inkscape:cy="12.99674"
     inkscape:document-units="px"
     inkscape:current-layer="layer1"
     showgrid="false"
     inkscape:window-width="1920"
     inkscape:window-height="1036"
     inkscape:window-x="0"
     inkscape:window-y="44"
     inkscape:window-maximized="0"
     inkscape:snap-object-midpoints="true"
     inkscape:snap-page="true"
     inkscape:snap-center="true"
     inkscape:object-nodes="true" />
  <metadata
     id="metadata7">
    <rdf:RDF>
      <cc:Work
         rdf:about="">
        <dc:format>image/svg+xml</dc:format>
        <dc:type
           rdf:resource="http://purl.org/dc/dcmitype/StillImage" />
        <dc:title></dc:title>
      </cc:Work>
    </rdf:RDF>
  </metadata>
  <g
     inkscape:label="Layer 1"
     inkscape:groupmode="layer"
     id="layer1"
     transform="translate(0,-1027.3622)">
    <rect
       style="fill:#ffffff;fill-opacity:1;stroke:none"
       id="rect3881"
       width="11.522053"
       height="10.859139"
       x="4.6731429"
       y="1034.4326"
       rx="9.6428576"
       ry="9.6428576" />
    <path
       style="fill:#008000;fill-opacity:1;stroke:none"
       d="M 10 2 L 8.6875 3.59375 L 6.4375 2.75 L 5.71875 4.71875 L 3.34375 4.71875 L 3.34375 6.8125 L 1.125 7.59375 L 1.84375 9.5625 L 0 11.09375 L 1.34375 12.65625 L 0.15625 14.75 L 1.96875 15.78125 L 1.5625 18.125 L 3.59375 18.5 L 4.03125 20.8125 L 6.0625 20.46875 L 7.25 22.53125 L 9.0625 21.5 L 10.875 23 L 12.1875 21.40625 L 14.40625 22.25 L 15.15625 20.28125 L 17.5 20.28125 L 17.5 18.21875 L 19.75 17.40625 L 19.03125 15.4375 L 20.875 13.90625 L 19.53125 12.34375 L 20.71875 10.25 L 18.90625 9.21875 L 19.3125 6.875 L 17.28125 6.5 L 16.84375 4.1875 L 14.8125 4.53125 L 13.625 2.46875 L 11.8125 3.5 L 10 2 z M 10.15625 5.40625 L 11.375 6.4375 L 12.59375 5.71875 L 13.40625 7.125 L 14.78125 6.875 L 15.0625 8.4375 L 16.4375 8.6875 L 16.15625 10.28125 L 17.375 11 L 16.5625 12.375 L 17.5 13.46875 L 16.25 14.46875 L 16.71875 15.8125 L 15.21875 16.375 L 15.21875 17.75 L 13.625 17.75 L 13.125 19.09375 L 11.625 18.53125 L 10.71875 19.59375 L 9.5 18.5625 L 8.28125 19.28125 L 7.46875 17.875 L 6.09375 18.125 L 5.8125 16.5625 L 4.4375 16.3125 L 4.71875 14.71875 L 3.5 14 L 4.28125 12.625 L 3.375 11.53125 L 4.625 10.53125 L 4.125 9.1875 L 5.65625 8.65625 L 5.65625 7.25 L 7.25 7.25 L 7.75 5.90625 L 9.25 6.46875 L 10.15625 5.40625 z "
       transform="translate(0,1027.3622)"
       id="rect3806" />
  </g>
</svg>
